<svg width="32" height="30" viewBox="0 0 32 30" fill="none" xmlns="http://www.w3.org/2000/svg">
<path d="M7.72884 29.493V9.93528H1.23391V29.493H7.72884ZM4.48273 7.26545C6.74717 7.26545 8.15694 5.76365 8.15694 3.88681C8.11455 1.96722 6.74717 0.507324 4.52579 0.507324C2.30289 0.507324 0.851074 1.96722 0.851074 3.88664C0.851074 5.76348 2.26033 7.26529 4.44017 7.26529L4.48273 7.26545ZM11.3239 29.493H17.8183V18.5723C17.8183 17.9885 17.8607 17.4032 18.0323 16.9863C18.5016 15.8179 19.5702 14.6085 21.3648 14.6085C23.7144 14.6085 24.6549 16.4019 24.6549 19.0313V29.493H31.1491V18.2792C31.1491 12.2722 27.9454 9.47676 23.6723 9.47676C20.169 9.47676 18.6304 11.4366 17.7756 12.7714H17.8188V9.93596H11.3242C11.409 11.7707 11.3239 29.493 11.3239 29.493Z" fill="#484848"/>
</svg>
